<svg xmlns="http://www.w3.org/2000/svg" xmlns:xlink="http://www.w3.org/1999/xlink" width="600" zoomAndPan="magnify" viewBox="0 0 450 449.999984" height="600" preserveAspectRatio="xMidYMid meet" version="1.0"><defs><clipPath id="ec712e2a78"><path d="M 45 60.226562 L 405 60.226562 L 405 389.777344 L 45 389.777344 Z M 45 60.226562 " clip-rule="nonzero"/></clipPath></defs><g clip-path="url(#ec712e2a78)"><path fill="#ffffff" d="M 360.585938 297.859375 C 359.792969 297.929688 359.003906 297.929688 358.136719 297.859375 C 353.816406 297.496094 351.875 304.769531 345.25 308.226562 C 338.125 311.898438 342.15625 316.9375 336.109375 321.6875 C 330.058594 326.441406 332.363281 334.21875 330.417969 338.25 C 328.476562 342.207031 330.417969 345.304688 335.386719 352.074219 C 340.355469 358.839844 336.035156 360.785156 339.492188 367.265625 C 342.949219 373.746094 339.851562 379.289062 334.019531 380.726562 C 328.257812 382.167969 332.074219 389.222656 325.953125 389.726562 C 320.269531 390.234375 316.953125 386.632812 305.433594 387.355469 C 293.914062 388.074219 294.203125 383.175781 294.707031 380.226562 C 295.210938 377.273438 288.730469 372.378906 287.578125 368.488281 C 286.429688 364.601562 281.605469 367.40625 279.949219 363.160156 C 278.722656 360.066406 280.667969 357.113281 279.011719 354.664062 C 277.355469 352.21875 273.898438 360.859375 269.433594 354.808594 C 264.972656 348.761719 268.210938 345.953125 266.410156 340.40625 C 264.609375 334.863281 255.109375 338.394531 251.21875 334.074219 C 247.40625 329.679688 244.8125 335.515625 240.707031 332.5625 C 236.316406 329.320312 239.699219 322.554688 241.929688 318.664062 C 244.164062 314.777344 241.066406 314.851562 241.644531 311.539062 C 242.21875 308.226562 238.976562 307.359375 238.042969 305.703125 C 237.109375 303.976562 241.210938 294.617188 243.371094 292.816406 C 245.53125 291.019531 247.257812 283.023438 249.632812 281.65625 C 252.011719 280.21875 248.554688 277.195312 246.324219 275.824219 C 244.089844 274.53125 243.445312 278.417969 240.417969 277.839844 C 237.46875 277.335938 231.5625 284.25 231.5625 284.25 L 227.964844 295.554688 C 227.246094 297.714844 225.011719 299.007812 222.777344 298.503906 C 221.914062 298.289062 220.976562 298.359375 220.113281 298.722656 L 206.21875 304.335938 C 205.136719 304.769531 203.914062 304.769531 202.765625 304.265625 L 189.371094 298.359375 L 179.792969 295.914062 C 175.765625 294.835938 174.25 289.863281 177.132812 286.769531 L 177.273438 286.625 C 180.875 282.738281 182.171875 277.265625 180.65625 272.15625 C 179.507812 268.265625 179.9375 264.089844 181.953125 260.488281 L 183.609375 257.464844 C 186.417969 252.425781 186.132812 246.234375 182.816406 241.480469 L 180.085938 237.59375 C 178.859375 235.863281 176.84375 234.929688 174.753906 235.144531 L 166.332031 236.007812 C 164.027344 236.226562 161.792969 235.074219 160.644531 233.058594 C 159.417969 230.824219 156.828125 229.601562 154.308594 230.179688 L 142.5 232.839844 C 139.691406 233.488281 137.027344 231.402344 137.027344 228.519531 L 136.738281 211.382812 C 136.667969 208.9375 134.652344 206.921875 132.203125 206.921875 C 130.1875 206.921875 128.457031 205.625 127.882812 203.753906 C 127.59375 202.816406 127.164062 201.664062 126.445312 200.441406 C 124.355469 196.699219 114.492188 203.539062 114.925781 199.648438 C 115.355469 195.761719 108.15625 194.179688 106.285156 188.128906 C 105.132812 184.382812 107.363281 180.355469 105.707031 177.542969 C 104.050781 174.808594 105.707031 173.875 106.929688 167.035156 C 108.15625 160.195312 101.816406 162.785156 102.324219 158.25 C 102.828125 153.714844 99.15625 155.226562 96.058594 153.425781 C 92.964844 151.625 87.492188 151.265625 82.667969 157.816406 C 77.84375 164.367188 71.292969 163.21875 70.210938 160.554688 C 69.132812 157.886719 67.765625 155.226562 63.949219 152.34375 C 60.132812 149.539062 56.964844 143.128906 56.816406 138.808594 C 56.675781 134.488281 52.5 138.953125 52.429688 134.058594 C 52.355469 129.160156 45.011719 125.632812 46.667969 119.515625 C 48.324219 113.394531 55.453125 111.519531 51.851562 109.359375 C 48.25 107.203125 45.296875 101.15625 45.011719 94.023438 C 44.722656 86.898438 49.976562 88.480469 51.632812 86.25 C 53.292969 84.019531 68.339844 85.527344 73.523438 80.5625 C 78.707031 75.59375 94.40625 75.304688 98.292969 71.058594 C 102.109375 66.808594 111.828125 67.601562 116.148438 65.585938 C 120.46875 63.566406 130.546875 57.089844 134.292969 62.058594 C 138.035156 67.023438 132.851562 75.304688 135.730469 80.128906 C 138.539062 84.953125 142.644531 79.480469 148.835938 77.539062 C 155.027344 75.519531 156.609375 78.90625 162.804688 81.859375 C 169.066406 84.808594 171.371094 85.527344 174.179688 88.769531 C 176.988281 92.007812 177.777344 94.601562 177.777344 94.601562 C 187.429688 98.703125 191.457031 98.5625 193.257812 95.609375 C 194.699219 93.234375 197.652344 92.585938 200.027344 94.097656 C 203.339844 96.257812 204.417969 93.304688 207.515625 89.996094 C 210.539062 86.824219 213.777344 89.5625 215.21875 84.59375 C 216.65625 79.625 217.667969 79.480469 224.074219 77.824219 C 230.484375 76.167969 230.410156 85.382812 234.085938 85.457031 C 237.753906 85.457031 237.539062 81.785156 236.605469 78.183594 C 235.667969 74.65625 236.246094 71.632812 238.042969 68.320312 C 239.84375 64.9375 245.457031 64.722656 248.554688 64.359375 C 251.652344 64 251.578125 69.835938 251.722656 74.441406 C 251.792969 79.046875 260.292969 78.113281 265.976562 72.066406 C 271.667969 66.019531 276.996094 65.367188 280.164062 68.394531 C 283.332031 71.417969 280.019531 76.382812 284.988281 77.539062 C 289.953125 78.6875 288.371094 81.207031 290.457031 81.566406 C 292.546875 81.929688 291.753906 79.335938 295.859375 75.449219 C 299.964844 71.5625 301.042969 75.738281 303.5625 78.6875 C 306.15625 81.566406 299.675781 86.609375 303.273438 89.128906 C 305.652344 90.785156 306.371094 95.824219 306.585938 98.921875 C 306.65625 100.433594 307.667969 101.726562 309.179688 102.234375 L 310.765625 102.738281 C 312.347656 103.242188 313.355469 104.679688 313.355469 106.335938 L 313.355469 106.984375 C 313.285156 108.566406 314.292969 110.007812 315.804688 110.585938 L 320.988281 112.382812 C 321.777344 112.675781 322.714844 112.675781 323.507812 112.382812 L 325.738281 111.519531 C 327.035156 111.019531 328.476562 111.304688 329.484375 112.242188 C 330.925781 113.539062 333.15625 113.464844 334.523438 112.097656 L 335.246094 111.378906 C 336.035156 110.585938 337.1875 110.226562 338.339844 110.367188 L 340.136719 110.585938 C 342.011719 110.800781 343.378906 112.382812 343.308594 114.257812 C 343.308594 116.5625 343.882812 119.367188 346.765625 119.875 C 351.804688 120.738281 351.515625 127.792969 356.195312 127.359375 C 360.875 126.929688 363.753906 131.753906 368.652344 135.425781 C 373.546875 139.097656 368.507812 143.417969 367.066406 147.738281 C 365.699219 152.128906 353.171875 160.335938 353.890625 164.800781 C 354.609375 169.265625 356.699219 169.914062 352.523438 174.089844 C 348.347656 178.265625 346.042969 170.777344 343.308594 179.203125 C 340.570312 187.625 345.972656 191.945312 349.570312 192.59375 C 351.949219 193.023438 354.539062 194.898438 356.050781 196.195312 C 356.988281 196.984375 358.066406 197.5625 359.21875 197.921875 L 374.484375 202.3125 C 375.707031 202.675781 376.5 203.898438 376.285156 205.195312 C 376.066406 206.34375 376.714844 207.496094 377.792969 207.929688 L 384.5625 210.882812 C 385.285156 211.167969 385.789062 211.816406 386.003906 212.539062 L 388.59375 221.96875 C 388.8125 222.617188 389.246094 223.195312 389.816406 223.554688 L 392.84375 225.136719 C 395.21875 226.359375 395.792969 229.601562 393.925781 231.542969 L 391.113281 234.640625 C 390.46875 235.359375 390.25 236.441406 390.683594 237.378906 L 393.777344 244.289062 C 394.285156 245.441406 395.507812 246.160156 396.804688 246.019531 L 399.035156 245.800781 C 400.835938 245.65625 402.417969 247.097656 402.273438 248.898438 C 402.203125 249.835938 402.5625 250.699219 403.285156 251.273438 L 404.003906 251.921875 C 405.011719 252.785156 405.296875 254.15625 404.722656 255.378906 L 401.050781 263.441406 C 400.765625 264.160156 400.691406 264.882812 400.90625 265.601562 L 402.492188 270.355469 C 403.429688 273.019531 401.339844 275.824219 398.457031 275.679688 L 397.523438 275.609375 C 396.085938 275.539062 394.714844 276.257812 393.925781 277.480469 L 391.546875 281.15625 C 390.898438 282.160156 389.890625 282.808594 388.667969 282.953125 C 385.789062 283.3125 384.273438 286.554688 385.714844 289 L 386.292969 290.007812 C 388.019531 293.035156 385.789062 293.609375 382.90625 295.480469 C 382.546875 295.699219 382.113281 295.769531 381.753906 295.625 C 380.316406 295.046875 376.570312 293.464844 376.066406 291.378906 C 375.417969 288.714844 371.457031 292.242188 371.027344 292.960938 C 370.59375 293.753906 371.027344 296.34375 367.789062 296.921875 C 365.84375 297.207031 362.53125 297.640625 360.585938 297.859375 " fill-opacity="1" fill-rule="nonzero"/></g></svg>