<svg xmlns="http://www.w3.org/2000/svg" xmlns:xlink="http://www.w3.org/1999/xlink" width="600" zoomAndPan="magnify" viewBox="0 0 450 449.999984" height="600" preserveAspectRatio="xMidYMid meet" version="1.0"><path fill="#ffffff" d="M 229.609375 49.84375 C 229.609375 49.84375 219.175781 49.042969 220.378906 55.863281 C 221.582031 62.683594 223.398438 72.320312 220.28125 76.734375 C 217.167969 81.144531 207.132812 95.996094 203.523438 96.402344 C 199.914062 96.800781 194.691406 94.792969 193.085938 96.402344 C 191.480469 98.007812 189.476562 98.40625 186.664062 98.40625 C 183.855469 98.40625 178.238281 102.015625 181.046875 102.824219 C 183.855469 103.621094 190.679688 107.636719 188.671875 109.644531 C 186.664062 111.648438 182.25 113.257812 177.835938 114.457031 C 173.417969 115.664062 170.210938 117.269531 165.792969 116.46875 C 161.378906 115.664062 162.988281 115.265625 156.96875 114.457031 C 150.945312 113.660156 149.742188 116.0625 146.933594 112.855469 C 144.121094 109.644531 144.925781 109.242188 144.121094 104.425781 C 143.320312 99.613281 142.917969 96.402344 140.511719 97.601562 C 138.101562 98.804688 135.289062 102.015625 133.285156 100.8125 C 131.28125 99.613281 132.078125 95.597656 131.28125 99.613281 C 130.476562 103.621094 132.078125 108.84375 133.285156 110.449219 C 134.488281 112.054688 136.09375 112.484375 135.695312 116.683594 C 135.289062 120.882812 134.890625 122.890625 135.289062 125.699219 C 135.695312 128.511719 135.289062 135.332031 137.699219 136.535156 C 140.109375 137.742188 142.917969 137.335938 142.515625 139.34375 C 142.117188 141.351562 142.117188 144.160156 138.5 144.160156 C 134.890625 144.160156 133.65625 142.152344 131.0625 144.160156 C 128.46875 146.167969 126.058594 148.171875 124.054688 146.167969 C 122.046875 144.160156 122.847656 141.75 120.445312 141.75 C 118.035156 141.75 118.035156 144.5625 115.222656 142.554688 C 112.414062 140.546875 115.222656 136.136719 112.414062 140.546875 C 109.605469 144.960938 110.40625 149.03125 106.398438 147 C 102.382812 144.960938 101.980469 141.75 99.171875 141.75 C 96.363281 141.75 98.765625 138.140625 95.960938 135.730469 C 93.152344 133.324219 93.550781 132.121094 89.535156 133.324219 C 85.523438 134.527344 84.71875 133.324219 83.519531 136.136719 C 82.316406 138.941406 85.523438 141.351562 80.304688 140.144531 C 75.089844 138.941406 75.089844 138.542969 71.476562 138.542969 C 67.863281 138.542969 68.667969 134.125 64.253906 136.9375 C 59.839844 139.746094 60.238281 140.546875 57.027344 140.953125 C 53.816406 141.351562 50.238281 140.144531 48.195312 142.152344 C 46.160156 144.160156 44.988281 147.773438 48.195312 145.765625 C 51.40625 143.757812 45.789062 142.554688 51.40625 143.757812 C 57.027344 144.960938 55.023438 142.554688 57.027344 144.960938 C 59.039062 147.371094 57.832031 148.976562 59.839844 150.183594 C 61.84375 151.382812 64.652344 149.378906 61.84375 151.382812 C 59.039062 153.394531 56.628906 151.382812 54.621094 151.382812 C 52.613281 151.382812 46.191406 150.359375 50.207031 152.277344 C 54.21875 154.195312 56.226562 154.597656 57.429688 155.398438 C 58.632812 156.203125 59.4375 152.1875 58.632812 156.203125 C 57.832031 160.214844 62.648438 165.433594 57.429688 162.625 C 52.210938 159.8125 54.621094 158.609375 52.210938 159.8125 C 49.800781 161.019531 48.195312 163.414062 50.207031 163.417969 C 52.210938 163.425781 55.824219 165.027344 55.824219 165.027344 C 55.824219 165.027344 59.039062 164.230469 57.832031 167.039062 C 56.628906 169.847656 55.421875 167.839844 56.628906 169.847656 C 57.832031 171.855469 57.429688 170.25 60.238281 169.847656 C 63.046875 169.445312 62.648438 168.210938 67.0625 170.835938 C 71.476562 173.460938 69.46875 171.453125 74.285156 173.460938 C 79.105469 175.464844 78.300781 173.460938 81.109375 176.269531 C 83.917969 179.082031 86.324219 179.480469 87.929688 180.28125 C 89.535156 181.085938 89.535156 179.082031 91.945312 178.273438 C 94.355469 177.472656 94.355469 176.671875 96.363281 178.675781 C 98.367188 180.683594 97.160156 182.289062 98.367188 183.496094 C 99.570312 184.695312 100.777344 181.484375 103.988281 183.496094 C 107.199219 185.5 106.796875 180.683594 107.199219 185.5 C 107.597656 190.316406 108 192.324219 105.992188 192.726562 C 103.988281 193.125 105.59375 196.335938 109.605469 195.132812 C 113.617188 193.925781 110.808594 191.921875 116.429688 193.527344 C 122.046875 195.132812 124.859375 192.863281 124.859375 195.398438 C 124.859375 197.941406 129.269531 197.136719 128.070312 198.742188 C 126.863281 200.351562 130.878906 203.5625 126.058594 202.359375 C 121.246094 201.152344 119.640625 198.742188 118.433594 200.351562 C 117.234375 201.957031 110.40625 201.679688 114.824219 202.621094 C 119.238281 203.5625 122.449219 205.167969 121.246094 207.171875 C 120.039062 209.179688 122.847656 210.382812 118.839844 211.988281 C 114.824219 213.59375 118.035156 217.210938 120.039062 218.007812 C 122.046875 218.8125 123.65625 218.410156 124.054688 220.417969 C 124.453125 222.425781 126.058594 223.984375 126.058594 226.214844 C 126.058594 228.445312 125.257812 230.050781 128.46875 231.65625 C 131.679688 233.261719 129.675781 235.671875 134.890625 235.671875 C 140.109375 235.671875 141.3125 233.261719 142.117188 235.671875 C 142.917969 238.078125 146.53125 234.867188 142.917969 238.078125 C 139.304688 241.285156 137.699219 244.902344 140.109375 245.300781 C 142.515625 245.703125 144.925781 248.511719 144.925781 248.511719 C 144.925781 248.511719 145.328125 252.929688 144.523438 255.339844 C 143.722656 257.742188 142.917969 257.34375 141.714844 259.347656 C 140.511719 261.355469 140.910156 262.964844 144.925781 265.769531 C 148.9375 268.582031 154.15625 272.59375 154.558594 274.199219 C 154.957031 275.804688 158.972656 279.820312 156.96875 282.226562 C 154.957031 284.636719 158.972656 289.050781 157.367188 291.859375 C 155.761719 294.667969 154.15625 291.058594 151.746094 286.242188 C 149.34375 281.425781 148.9375 280.621094 147.332031 278.210938 C 145.726562 275.804688 148.9375 279.820312 145.726562 275.804688 C 142.515625 271.789062 140.511719 273.800781 140.511719 277.8125 C 140.511719 281.824219 142.515625 284.230469 141.3125 287.042969 C 140.109375 289.851562 134.902344 293.867188 137.910156 296.273438 C 140.910156 298.683594 141.3125 298.683594 142.515625 301.894531 C 143.722656 305.101562 146.53125 307.914062 144.121094 309.117188 C 141.714844 310.324219 138.113281 307.109375 137.910156 312.328125 C 137.699219 317.542969 138.519531 321.160156 137.910156 324.769531 C 137.300781 328.382812 139.707031 324.769531 136.09375 331.996094 C 132.484375 339.21875 134.890625 340.023438 134.089844 344.4375 C 133.285156 348.851562 130.878906 354.070312 130.878906 354.070312 C 130.878906 354.070312 133.285156 354.46875 129.269531 356.074219 C 125.257812 357.683594 127.664062 361.292969 125.257812 361.695312 C 122.847656 362.09375 122.847656 366.511719 126.058594 365.710938 C 129.269531 364.90625 128.871094 363.699219 131.679688 363.300781 C 134.488281 362.898438 137.699219 365.101562 135.695312 365.808594 C 133.6875 366.511719 132.484375 368.519531 130.074219 369.320312 C 127.664062 370.125 125.660156 370.925781 128.871094 374.136719 C 132.078125 377.347656 132.484375 374.136719 135.289062 376.144531 C 138.101562 378.152344 137.300781 374.941406 141.714844 376.144531 C 146.132812 377.347656 148.535156 377.347656 148.9375 379.757812 C 149.34375 382.164062 151.746094 383.769531 152.953125 384.972656 C 154.15625 386.175781 156.5625 383.769531 158.574219 384.972656 C 160.578125 386.175781 160.578125 385.375 163.386719 386.980469 C 166.199219 388.585938 166.597656 387.78125 168.605469 389.386719 C 170.613281 390.992188 170.210938 392.199219 173.824219 391.796875 C 177.433594 391.398438 179.441406 389.945312 186.265625 391.871094 C 193.085938 393.804688 192.285156 393.15625 192.285156 391.871094 C 192.285156 390.59375 190.679688 386.175781 193.085938 385.777344 C 195.496094 385.375 196.296875 386.578125 199.507812 387.78125 C 202.722656 388.988281 204.328125 387.382812 206.734375 388.988281 C 209.144531 390.59375 206.734375 388.988281 212.753906 388.988281 C 218.773438 388.988281 217.167969 388.988281 220.378906 391.398438 C 223.589844 393.804688 227.539062 393.003906 225.164062 396.210938 C 222.789062 399.421875 222.386719 401.828125 226.800781 401.828125 C 231.214844 401.828125 230.011719 400.222656 234.023438 401.828125 C 238.042969 403.433594 233.625 402.632812 238.839844 401.828125 C 244.0625 401.027344 239.644531 401.277344 246.867188 402.757812 C 254.09375 404.238281 251.6875 404.886719 258.910156 402.757812 C 266.132812 400.628906 269.34375 403.433594 268.945312 399.824219 C 268.542969 396.210938 263.324219 398.21875 265.734375 393.804688 C 268.140625 389.386719 269.34375 390.191406 266.9375 385.375 C 264.527344 380.5625 261.71875 377.347656 266.132812 374.539062 C 270.550781 371.730469 266.132812 369.320312 274.964844 368.519531 C 283.796875 367.714844 279.78125 366.511719 280.984375 363.300781 C 282.191406 360.089844 281.785156 362.09375 287.007812 360.488281 C 292.222656 358.882812 287.804688 357.683594 293.027344 356.476562 C 298.242188 355.273438 296.238281 356.074219 300.652344 356.476562 C 305.066406 356.878906 302.65625 359.6875 307.472656 356.074219 C 312.289062 352.464844 315.902344 352.464844 313.492188 356.074219 C 311.085938 359.6875 307.402344 360.894531 314.257812 360.089844 C 321.121094 359.289062 316.703125 359.289062 321.121094 359.289062 C 325.535156 359.289062 327.542969 361.695312 329.550781 362.898438 C 331.554688 364.105469 334.765625 370.925781 339.980469 369.71875 C 345.203125 368.519531 342.792969 371.730469 348.8125 371.730469 C 354.832031 371.730469 366.875 374.539062 368.078125 371.324219 C 369.285156 368.117188 369.285156 367.714844 372.894531 366.511719 C 376.503906 365.308594 376.105469 366.109375 376.503906 361.292969 C 376.910156 356.476562 376.503906 358.484375 380.519531 356.476562 C 384.535156 354.46875 384.9375 353.667969 387.34375 351.257812 C 389.75 348.851562 390.152344 351.257812 391.757812 346.84375 C 393.363281 342.433594 394.167969 345.238281 396.976562 342.433594 C 399.785156 339.621094 395.371094 338.816406 396.976562 336.007812 C 398.582031 333.195312 400.21875 332.796875 402.191406 328.382812 C 404.167969 323.964844 406.609375 322.359375 399.382812 324.769531 C 392.160156 327.179688 392.160156 328.382812 387.746094 327.980469 C 383.332031 327.582031 382.925781 317.542969 379.316406 316.339844 C 375.707031 315.136719 380.519531 315.539062 378.515625 313.535156 C 376.503906 311.523438 374.5 307.109375 377.710938 304.703125 C 380.921875 302.292969 385.738281 301.492188 382.527344 298.28125 C 379.316406 295.070312 380.519531 293.464844 376.503906 293.0625 C 372.496094 292.660156 376.910156 295.472656 372.894531 290.253906 C 368.878906 285.035156 367.273438 287.847656 368.878906 285.035156 C 370.484375 282.226562 368.878906 280.621094 373.296875 281.023438 C 377.710938 281.425781 378.914062 282.625 380.921875 279.820312 C 382.925781 277.007812 384.9375 275.804688 382.125 270.988281 C 379.316406 266.175781 380.519531 264.570312 376.910156 261.757812 C 373.296875 258.949219 372.089844 260.953125 371.289062 257.742188 C 370.484375 254.53125 376.503906 254.53125 376.910156 249.71875 C 377.308594 244.902344 378.109375 248.511719 373.695312 240.488281 C 369.285156 232.460938 372.089844 230.050781 365.671875 231.253906 C 359.25 232.460938 354.03125 229.246094 354.433594 232.859375 C 354.832031 236.472656 362.460938 240.085938 355.636719 240.886719 C 348.8125 241.691406 343.996094 248.113281 346.003906 241.691406 C 348.011719 235.265625 354.832031 238.878906 351.621094 230.453125 C 348.414062 222.023438 347.207031 223.628906 352.023438 219.613281 C 356.839844 215.597656 354.03125 221.21875 356.839844 215.597656 C 359.648438 209.984375 357.644531 209.984375 361.65625 207.574219 C 365.671875 205.167969 366.472656 206.367188 368.878906 201.554688 C 371.289062 196.738281 376.503906 195.9375 374.097656 193.125 C 371.691406 190.316406 370.890625 183.089844 374.097656 184.296875 C 377.308594 185.5 379.316406 188.710938 381.320312 186.707031 C 383.332031 184.695312 390.957031 185.5 389.351562 180.28125 C 387.746094 175.066406 388.148438 170.648438 388.949219 162.222656 C 389.75 153.792969 391.757812 157.003906 392.160156 151.382812 C 392.5625 145.765625 393.363281 139.746094 392.960938 134.929688 C 392.5625 130.113281 391.359375 132.519531 394.566406 128.910156 C 397.777344 125.296875 402.996094 123.691406 396.976562 122.890625 C 390.957031 122.085938 390.152344 123.691406 386.140625 121.285156 C 382.125 118.875 384.9375 116.46875 379.316406 118.074219 C 373.695312 119.679688 376.503906 122.488281 370.085938 118.472656 C 363.664062 114.457031 364.867188 116.0625 361.65625 114.863281 C 358.445312 113.660156 356.4375 113.660156 353.226562 109.242188 C 350.019531 104.828125 346.003906 104.425781 343.597656 104.828125 C 341.1875 105.226562 340.386719 110.042969 337.578125 107.636719 C 334.765625 105.226562 339.179688 104.023438 334.765625 105.226562 C 330.351562 106.433594 332.761719 108.039062 327.140625 104.023438 C 321.519531 100.011719 323.125 100.011719 318.308594 97.203125 C 313.492188 94.390625 315.902344 92.785156 311.890625 91.582031 C 307.875 90.382812 306.269531 91.179688 306.671875 86.367188 C 307.074219 81.550781 310.683594 81.550781 307.074219 81.550781 C 303.457031 81.550781 303.457031 85.160156 300.246094 85.160156 C 297.039062 85.160156 292.222656 87.167969 289.816406 83.957031 C 287.40625 80.746094 288.210938 75.128906 286.203125 73.523438 C 284.195312 71.914062 282.191406 74.726562 279.78125 73.925781 C 277.371094 73.121094 276.570312 69.910156 274.5625 67.097656 C 272.554688 64.289062 272.554688 67.097656 268.140625 65.09375 C 263.726562 63.085938 264.929688 60.675781 262.523438 57.46875 C 260.113281 54.257812 257.304688 54.257812 254.09375 55.460938 C 250.882812 56.664062 249.675781 52.996094 246.46875 49.8125 C 243.257812 46.632812 233.078125 49.703125 229.609375 49.84375 " fill-opacity="1" fill-rule="nonzero"/></svg>