<svg xmlns="http://www.w3.org/2000/svg" xmlns:xlink="http://www.w3.org/1999/xlink" width="300" zoomAndPan="magnify" viewBox="0 0 224.87999 60.75" height="81" preserveAspectRatio="xMidYMid meet" version="1.0"><defs><g/></defs><g fill="#ffffff" fill-opacity="1"><g transform="translate(0.427855, 48.093566)"><g><path d="M 13.25 0.453125 C 11.144531 0.453125 9.242188 -0.0859375 7.546875 -1.171875 C 5.859375 -2.265625 4.515625 -3.867188 3.515625 -5.984375 C 2.523438 -8.097656 2.03125 -10.695312 2.03125 -13.78125 C 2.03125 -16.945312 2.539062 -19.582031 3.5625 -21.6875 C 4.59375 -23.789062 5.957031 -25.367188 7.65625 -26.421875 C 9.351562 -27.472656 11.207031 -28 13.21875 -28 C 14.769531 -28 16.0625 -27.738281 17.09375 -27.21875 C 18.132812 -26.695312 18.972656 -26.050781 19.609375 -25.28125 C 20.253906 -24.507812 20.75 -23.75 21.09375 -23 L 21.328125 -23 L 21.328125 -36.859375 L 28.96875 -36.859375 L 28.96875 0 L 21.40625 0 L 21.40625 -4.421875 L 21.09375 -4.421875 C 20.738281 -3.660156 20.234375 -2.90625 19.578125 -2.15625 C 18.921875 -1.40625 18.070312 -0.78125 17.03125 -0.28125 C 15.988281 0.207031 14.726562 0.453125 13.25 0.453125 Z M 15.671875 -5.65625 C 17.515625 -5.65625 18.941406 -6.398438 19.953125 -7.890625 C 20.972656 -9.378906 21.484375 -11.351562 21.484375 -13.8125 C 21.484375 -16.289062 20.976562 -18.257812 19.96875 -19.71875 C 18.96875 -21.175781 17.535156 -21.90625 15.671875 -21.90625 C 13.773438 -21.90625 12.332031 -21.15625 11.34375 -19.65625 C 10.351562 -18.164062 9.859375 -16.21875 9.859375 -13.8125 C 9.859375 -11.40625 10.351562 -9.441406 11.34375 -7.921875 C 12.34375 -6.410156 13.785156 -5.65625 15.671875 -5.65625 Z M 15.671875 -5.65625 "/></g></g></g><g fill="#ffffff" fill-opacity="1"><g transform="translate(32.609132, 48.093566)"><g><path d="M 3.0625 0 L 3.0625 -27.640625 L 10.71875 -27.640625 L 10.71875 0 Z M 6.90625 -31.203125 C 5.78125 -31.203125 4.804688 -31.582031 3.984375 -32.34375 C 3.171875 -33.101562 2.765625 -34.019531 2.765625 -35.09375 C 2.765625 -36.15625 3.171875 -37.0625 3.984375 -37.8125 C 4.804688 -38.570312 5.78125 -38.953125 6.90625 -38.953125 C 8.050781 -38.953125 9.03125 -38.570312 9.84375 -37.8125 C 10.65625 -37.0625 11.0625 -36.15625 11.0625 -35.09375 C 11.0625 -34.019531 10.65625 -33.101562 9.84375 -32.34375 C 9.03125 -31.582031 8.050781 -31.203125 6.90625 -31.203125 Z M 6.90625 -31.203125 "/></g></g></g><g fill="#ffffff" fill-opacity="1"><g transform="translate(46.388258, 48.093566)"><g><path d="M 15.65625 0.546875 C 12.820312 0.546875 10.378906 -0.03125 8.328125 -1.1875 C 6.273438 -2.351562 4.695312 -4 3.59375 -6.125 C 2.488281 -8.257812 1.9375 -10.78125 1.9375 -13.6875 C 1.9375 -16.53125 2.488281 -19.023438 3.59375 -21.171875 C 4.695312 -23.328125 6.253906 -25.003906 8.265625 -26.203125 C 10.273438 -27.398438 12.632812 -28 15.34375 -28 C 17.78125 -28 19.976562 -27.484375 21.9375 -26.453125 C 23.90625 -25.421875 25.460938 -23.863281 26.609375 -21.78125 C 27.765625 -19.695312 28.34375 -17.09375 28.34375 -13.96875 L 28.34375 -11.859375 L 9.515625 -11.859375 L 9.515625 -11.84375 C 9.515625 -9.78125 10.078125 -8.15625 11.203125 -6.96875 C 12.335938 -5.78125 13.863281 -5.1875 15.78125 -5.1875 C 17.0625 -5.1875 18.171875 -5.453125 19.109375 -5.984375 C 20.046875 -6.523438 20.707031 -7.328125 21.09375 -8.390625 L 28.171875 -7.921875 C 27.640625 -5.347656 26.273438 -3.289062 24.078125 -1.75 C 21.878906 -0.21875 19.070312 0.546875 15.65625 0.546875 Z M 9.515625 -16.609375 L 21.125 -16.609375 C 21.113281 -18.253906 20.582031 -19.609375 19.53125 -20.671875 C 18.488281 -21.742188 17.132812 -22.28125 15.46875 -22.28125 C 13.769531 -22.28125 12.375 -21.726562 11.28125 -20.625 C 10.1875 -19.519531 9.597656 -18.179688 9.515625 -16.609375 Z M 9.515625 -16.609375 "/></g></g></g><g fill="#ffffff" fill-opacity="1"><g transform="translate(76.662763, 48.093566)"><g/></g></g><g fill="#ffffff" fill-opacity="1"><g transform="translate(88.409203, 48.093566)"><g><path d="M 3.203125 0 L 3.203125 -36.859375 L 17.75 -36.859375 C 21.925781 -36.859375 25.171875 -35.765625 27.484375 -33.578125 C 29.796875 -31.390625 30.953125 -28.46875 30.953125 -24.8125 C 30.953125 -22.289062 30.390625 -20.132812 29.265625 -18.34375 C 28.140625 -16.5625 26.53125 -15.222656 24.4375 -14.328125 L 32.265625 0 L 23.65625 0 L 16.6875 -13.0625 L 11 -13.0625 L 11 0 Z M 11 -19.328125 L 16.28125 -19.328125 C 20.707031 -19.328125 22.921875 -21.15625 22.921875 -24.8125 C 22.921875 -28.59375 20.695312 -30.484375 16.25 -30.484375 L 11 -30.484375 Z M 11 -19.328125 "/></g></g></g><g fill="#ffffff" fill-opacity="1"><g transform="translate(121.651803, 48.093566)"><g><path d="M 15.65625 0.546875 C 12.820312 0.546875 10.378906 -0.03125 8.328125 -1.1875 C 6.273438 -2.351562 4.695312 -4 3.59375 -6.125 C 2.488281 -8.257812 1.9375 -10.78125 1.9375 -13.6875 C 1.9375 -16.53125 2.488281 -19.023438 3.59375 -21.171875 C 4.695312 -23.328125 6.253906 -25.003906 8.265625 -26.203125 C 10.273438 -27.398438 12.632812 -28 15.34375 -28 C 17.78125 -28 19.976562 -27.484375 21.9375 -26.453125 C 23.90625 -25.421875 25.460938 -23.863281 26.609375 -21.78125 C 27.765625 -19.695312 28.34375 -17.09375 28.34375 -13.96875 L 28.34375 -11.859375 L 9.515625 -11.859375 L 9.515625 -11.84375 C 9.515625 -9.78125 10.078125 -8.15625 11.203125 -6.96875 C 12.335938 -5.78125 13.863281 -5.1875 15.78125 -5.1875 C 17.0625 -5.1875 18.171875 -5.453125 19.109375 -5.984375 C 20.046875 -6.523438 20.707031 -7.328125 21.09375 -8.390625 L 28.171875 -7.921875 C 27.640625 -5.347656 26.273438 -3.289062 24.078125 -1.75 C 21.878906 -0.21875 19.070312 0.546875 15.65625 0.546875 Z M 9.515625 -16.609375 L 21.125 -16.609375 C 21.113281 -18.253906 20.582031 -19.609375 19.53125 -20.671875 C 18.488281 -21.742188 17.132812 -22.28125 15.46875 -22.28125 C 13.769531 -22.28125 12.375 -21.726562 11.28125 -20.625 C 10.1875 -19.519531 9.597656 -18.179688 9.515625 -16.609375 Z M 9.515625 -16.609375 "/></g></g></g><g fill="#ffffff" fill-opacity="1"><g transform="translate(151.926308, 48.093566)"><g><path d="M 3.0625 0 L 3.0625 -27.640625 L 10.71875 -27.640625 L 10.71875 0 Z M 6.90625 -31.203125 C 5.78125 -31.203125 4.804688 -31.582031 3.984375 -32.34375 C 3.171875 -33.101562 2.765625 -34.019531 2.765625 -35.09375 C 2.765625 -36.15625 3.171875 -37.0625 3.984375 -37.8125 C 4.804688 -38.570312 5.78125 -38.953125 6.90625 -38.953125 C 8.050781 -38.953125 9.03125 -38.570312 9.84375 -37.8125 C 10.65625 -37.0625 11.0625 -36.15625 11.0625 -35.09375 C 11.0625 -34.019531 10.65625 -33.101562 9.84375 -32.34375 C 9.03125 -31.582031 8.050781 -31.203125 6.90625 -31.203125 Z M 6.90625 -31.203125 "/></g></g></g><g fill="#ffffff" fill-opacity="1"><g transform="translate(165.705434, 48.093566)"><g><path d="M 26.0625 -19.75 L 19.03125 -19.328125 C 18.84375 -20.210938 18.359375 -20.972656 17.578125 -21.609375 C 16.796875 -22.242188 15.738281 -22.5625 14.40625 -22.5625 C 13.21875 -22.5625 12.210938 -22.3125 11.390625 -21.8125 C 10.578125 -21.320312 10.175781 -20.660156 10.1875 -19.828125 C 10.175781 -19.171875 10.4375 -18.613281 10.96875 -18.15625 C 11.5 -17.695312 12.40625 -17.332031 13.6875 -17.0625 L 18.703125 -16.046875 C 24.015625 -14.953125 26.675781 -12.457031 26.6875 -8.5625 C 26.6875 -6.75 26.15625 -5.160156 25.09375 -3.796875 C 24.03125 -2.429688 22.570312 -1.363281 20.71875 -0.59375 C 18.875 0.164062 16.757812 0.546875 14.375 0.546875 C 10.71875 0.546875 7.800781 -0.21875 5.625 -1.75 C 3.457031 -3.28125 2.191406 -5.363281 1.828125 -8 L 9.375 -8.40625 C 9.613281 -7.28125 10.164062 -6.425781 11.03125 -5.84375 C 11.90625 -5.269531 13.023438 -4.984375 14.390625 -4.984375 C 15.734375 -4.984375 16.816406 -5.242188 17.640625 -5.765625 C 18.460938 -6.296875 18.878906 -6.972656 18.890625 -7.796875 C 18.859375 -9.160156 17.675781 -10.078125 15.34375 -10.546875 L 10.5625 -11.5 C 5.207031 -12.5625 2.546875 -15.191406 2.578125 -19.390625 C 2.566406 -22.054688 3.628906 -24.15625 5.765625 -25.6875 C 7.910156 -27.226562 10.75 -28 14.28125 -28 C 17.78125 -28 20.53125 -27.257812 22.53125 -25.78125 C 24.539062 -24.3125 25.71875 -22.300781 26.0625 -19.75 Z M 26.0625 -19.75 "/></g></g></g><g fill="#ffffff" fill-opacity="1"><g transform="translate(194.163116, 48.093566)"><g><path d="M 15.65625 0.546875 C 12.820312 0.546875 10.378906 -0.03125 8.328125 -1.1875 C 6.273438 -2.351562 4.695312 -4 3.59375 -6.125 C 2.488281 -8.257812 1.9375 -10.78125 1.9375 -13.6875 C 1.9375 -16.53125 2.488281 -19.023438 3.59375 -21.171875 C 4.695312 -23.328125 6.253906 -25.003906 8.265625 -26.203125 C 10.273438 -27.398438 12.632812 -28 15.34375 -28 C 17.78125 -28 19.976562 -27.484375 21.9375 -26.453125 C 23.90625 -25.421875 25.460938 -23.863281 26.609375 -21.78125 C 27.765625 -19.695312 28.34375 -17.09375 28.34375 -13.96875 L 28.34375 -11.859375 L 9.515625 -11.859375 L 9.515625 -11.84375 C 9.515625 -9.78125 10.078125 -8.15625 11.203125 -6.96875 C 12.335938 -5.78125 13.863281 -5.1875 15.78125 -5.1875 C 17.0625 -5.1875 18.171875 -5.453125 19.109375 -5.984375 C 20.046875 -6.523438 20.707031 -7.328125 21.09375 -8.390625 L 28.171875 -7.921875 C 27.640625 -5.347656 26.273438 -3.289062 24.078125 -1.75 C 21.878906 -0.21875 19.070312 0.546875 15.65625 0.546875 Z M 9.515625 -16.609375 L 21.125 -16.609375 C 21.113281 -18.253906 20.582031 -19.609375 19.53125 -20.671875 C 18.488281 -21.742188 17.132812 -22.28125 15.46875 -22.28125 C 13.769531 -22.28125 12.375 -21.726562 11.28125 -20.625 C 10.1875 -19.519531 9.597656 -18.179688 9.515625 -16.609375 Z M 9.515625 -16.609375 "/></g></g></g></svg>