<svg xmlns="http://www.w3.org/2000/svg" xmlns:xlink="http://www.w3.org/1999/xlink" width="150" zoomAndPan="magnify" viewBox="0 0 112.5 61.499998" height="82" preserveAspectRatio="xMidYMid meet" version="1.0"><defs><g/><clipPath id="aa6d9f61ca"><path d="M 0.207031 0 L 111.796875 0 L 111.796875 61.003906 L 0.207031 61.003906 Z M 0.207031 0 " clip-rule="nonzero"/></clipPath></defs><g clip-path="url(#aa6d9f61ca)"><path fill="#ffffff" d="M 0.207031 0 L 111.796875 0 L 111.796875 61.003906 L 0.207031 61.003906 Z M 0.207031 0 " fill-opacity="1" fill-rule="nonzero"/><path fill="#000000" d="M 0.207031 0 L 111.796875 0 L 111.796875 61.003906 L 0.207031 61.003906 Z M 0.207031 0 " fill-opacity="1" fill-rule="nonzero"/><path fill="#ec0403" d="M 0.207031 0 L 111.796875 0 L 111.796875 61.003906 L 0.207031 61.003906 Z M 0.207031 0 " fill-opacity="1" fill-rule="nonzero"/></g><g fill="#ffffff" fill-opacity="1"><g transform="translate(9.086569, 40.917336)"><g><path d="M 7.0625 0 L 2.34375 0 L 2.34375 -22.890625 L 7.0625 -22.890625 Z M 7.0625 0 "/></g></g></g><g fill="#ffffff" fill-opacity="1"><g transform="translate(18.465971, 40.917336)"><g><path d="M 20 -7.625 C 19.820312 -5.15625 18.914062 -3.210938 17.28125 -1.796875 C 15.644531 -0.390625 13.484375 0.3125 10.796875 0.3125 C 7.859375 0.3125 5.550781 -0.671875 3.875 -2.640625 C 2.195312 -4.617188 1.359375 -7.332031 1.359375 -10.78125 L 1.359375 -12.1875 C 1.359375 -14.382812 1.742188 -16.320312 2.515625 -18 C 3.285156 -19.675781 4.390625 -20.960938 5.828125 -21.859375 C 7.273438 -22.753906 8.953125 -23.203125 10.859375 -23.203125 C 13.503906 -23.203125 15.628906 -22.492188 17.234375 -21.078125 C 18.847656 -19.660156 19.78125 -17.675781 20.03125 -15.125 L 15.328125 -15.125 C 15.210938 -16.59375 14.800781 -17.660156 14.09375 -18.328125 C 13.382812 -18.992188 12.304688 -19.328125 10.859375 -19.328125 C 9.285156 -19.328125 8.109375 -18.765625 7.328125 -17.640625 C 6.546875 -16.515625 6.144531 -14.769531 6.125 -12.40625 L 6.125 -10.671875 C 6.125 -8.203125 6.5 -6.394531 7.25 -5.25 C 8 -4.101562 9.179688 -3.53125 10.796875 -3.53125 C 12.253906 -3.53125 13.34375 -3.863281 14.0625 -4.53125 C 14.78125 -5.195312 15.191406 -6.226562 15.296875 -7.625 Z M 20 -7.625 "/></g></g></g><g fill="#ffffff" fill-opacity="1"><g transform="translate(39.518565, 40.917336)"><g/></g></g><g fill="#ffffff" fill-opacity="1"><g transform="translate(47.531119, 40.917336)"><g><path d="M 13.875 -23.125 L 13.875 -19.375 L 13.4375 -19.375 C 11.382812 -19.34375 9.726562 -18.804688 8.46875 -17.765625 C 7.21875 -16.734375 6.46875 -15.296875 6.21875 -13.453125 C 7.4375 -14.691406 8.972656 -15.3125 10.828125 -15.3125 C 12.816406 -15.3125 14.394531 -14.597656 15.5625 -13.171875 C 16.738281 -11.742188 17.328125 -9.867188 17.328125 -7.546875 C 17.328125 -6.054688 17.003906 -4.707031 16.359375 -3.5 C 15.722656 -2.300781 14.8125 -1.363281 13.625 -0.6875 C 12.445312 -0.0195312 11.117188 0.3125 9.640625 0.3125 C 7.222656 0.3125 5.273438 -0.523438 3.796875 -2.203125 C 2.316406 -3.878906 1.578125 -6.113281 1.578125 -8.90625 L 1.578125 -10.546875 C 1.578125 -13.023438 2.046875 -15.210938 2.984375 -17.109375 C 3.921875 -19.015625 5.265625 -20.488281 7.015625 -21.53125 C 8.773438 -22.582031 10.8125 -23.113281 13.125 -23.125 Z M 9.453125 -11.65625 C 8.710938 -11.65625 8.039062 -11.460938 7.4375 -11.078125 C 6.84375 -10.703125 6.40625 -10.203125 6.125 -9.578125 L 6.125 -8.1875 C 6.125 -6.664062 6.421875 -5.476562 7.015625 -4.625 C 7.617188 -3.769531 8.460938 -3.34375 9.546875 -3.34375 C 10.515625 -3.34375 11.300781 -3.726562 11.90625 -4.5 C 12.507812 -5.269531 12.8125 -6.269531 12.8125 -7.5 C 12.8125 -8.738281 12.503906 -9.738281 11.890625 -10.5 C 11.285156 -11.269531 10.472656 -11.65625 9.453125 -11.65625 Z M 9.453125 -11.65625 "/></g></g></g><g fill="#ffffff" fill-opacity="1"><g transform="translate(65.991416, 40.917336)"><g><path d="M 17.109375 -20.34375 L 8.265625 0 L 3.46875 0 L 12.34375 -19.203125 L 0.953125 -19.203125 L 0.953125 -22.890625 L 17.109375 -22.890625 Z M 17.109375 -20.34375 "/></g></g></g><g fill="#ffffff" fill-opacity="1"><g transform="translate(84.451714, 40.917336)"><g><path d="M 2.234375 -11.25 L 3.546875 -22.890625 L 16.375 -22.890625 L 16.375 -19.09375 L 7.28125 -19.09375 L 6.71875 -14.171875 C 7.789062 -14.753906 8.9375 -15.046875 10.15625 -15.046875 C 12.332031 -15.046875 14.035156 -14.367188 15.265625 -13.015625 C 16.503906 -11.660156 17.125 -9.769531 17.125 -7.34375 C 17.125 -5.863281 16.8125 -4.539062 16.1875 -3.375 C 15.570312 -2.207031 14.679688 -1.300781 13.515625 -0.65625 C 12.347656 -0.0078125 10.976562 0.3125 9.40625 0.3125 C 8.019531 0.3125 6.734375 0.03125 5.546875 -0.53125 C 4.359375 -1.09375 3.421875 -1.878906 2.734375 -2.890625 C 2.054688 -3.910156 1.695312 -5.066406 1.65625 -6.359375 L 6.140625 -6.359375 C 6.234375 -5.410156 6.566406 -4.671875 7.140625 -4.140625 C 7.710938 -3.609375 8.457031 -3.34375 9.375 -3.34375 C 10.40625 -3.34375 11.195312 -3.710938 11.75 -4.453125 C 12.3125 -5.191406 12.59375 -6.238281 12.59375 -7.59375 C 12.59375 -8.894531 12.269531 -9.890625 11.625 -10.578125 C 10.988281 -11.265625 10.082031 -11.609375 8.90625 -11.609375 C 7.832031 -11.609375 6.957031 -11.328125 6.28125 -10.765625 L 5.84375 -10.359375 Z M 2.234375 -11.25 "/></g></g></g></svg>