<svg xmlns="http://www.w3.org/2000/svg" xmlns:xlink="http://www.w3.org/1999/xlink" width="100" zoomAndPan="magnify" viewBox="0 0 75 74.999997" height="100" preserveAspectRatio="xMidYMid meet" version="1.0"><defs><clipPath id="080b3193d3"><path d="M 3.75 3.75 L 71.25 3.75 L 71.25 71.25 L 3.75 71.25 Z M 3.75 3.75 " clip-rule="nonzero"/></clipPath></defs><g clip-path="url(#080b3193d3)"><path fill="#0065be" d="M 71.246094 37.496094 C 71.246094 42.429688 70.1875 47.109375 68.28125 51.332031 C 66.738281 54.761719 64.636719 57.886719 62.105469 60.589844 C 55.953125 67.144531 47.199219 71.25 37.5 71.25 C 27.800781 71.25 19.046875 67.15625 12.894531 60.589844 C 10.351562 57.886719 8.261719 54.761719 6.71875 51.332031 C 4.8125 47.109375 3.753906 42.429688 3.753906 37.496094 C 3.753906 32.558594 4.8125 27.882812 6.71875 23.65625 C 8.261719 20.230469 10.363281 17.101562 12.894531 14.398438 C 19.046875 7.84375 27.800781 3.75 37.5 3.75 C 47.199219 3.75 55.953125 7.84375 62.105469 14.410156 C 64.648438 17.113281 66.738281 20.238281 68.28125 23.667969 C 70.1875 27.882812 71.246094 32.570312 71.246094 37.496094 Z M 71.246094 37.496094 " fill-opacity="1" fill-rule="nonzero"/></g><path fill="#ededed" d="M 47.535156 37.496094 L 68.292969 51.332031 C 66.75 54.761719 64.648438 57.886719 62.117188 60.589844 L 37.5 44.1875 L 12.894531 60.589844 C 10.351562 57.886719 8.261719 54.761719 6.71875 51.332031 L 27.464844 37.496094 L 6.71875 23.65625 C 8.261719 20.230469 10.363281 17.101562 12.894531 14.398438 L 37.5 30.800781 L 62.105469 14.410156 C 64.648438 17.113281 66.738281 20.238281 68.28125 23.667969 Z M 47.535156 37.496094 " fill-opacity="1" fill-rule="nonzero"/></svg>