<svg xmlns="http://www.w3.org/2000/svg" xmlns:xlink="http://www.w3.org/1999/xlink" width="100" zoomAndPan="magnify" viewBox="0 0 75 74.999997" height="100" preserveAspectRatio="xMidYMid meet" version="1.0"><defs><clipPath id="829e46bbfc"><path d="M 3.871094 3.871094 L 71.371094 3.871094 L 71.371094 71.371094 L 3.871094 71.371094 Z M 3.871094 3.871094 " clip-rule="nonzero"/></clipPath></defs><g clip-path="url(#829e46bbfc)"><path fill="#ff3d00" d="M 71.371094 37.621094 C 71.371094 38.726562 71.316406 39.828125 71.210938 40.929688 C 71.101562 42.03125 70.9375 43.121094 70.722656 44.207031 C 70.507812 45.289062 70.238281 46.359375 69.917969 47.417969 C 69.597656 48.476562 69.226562 49.515625 68.800781 50.539062 C 68.378906 51.558594 67.90625 52.554688 67.386719 53.53125 C 66.867188 54.507812 66.296875 55.453125 65.683594 56.371094 C 65.070312 57.292969 64.410156 58.179688 63.710938 59.03125 C 63.007812 59.886719 62.269531 60.703125 61.488281 61.488281 C 60.703125 62.269531 59.886719 63.007812 59.03125 63.710938 C 58.179688 64.410156 57.292969 65.070312 56.371094 65.683594 C 55.453125 66.296875 54.507812 66.867188 53.53125 67.386719 C 52.554688 67.90625 51.558594 68.378906 50.539062 68.800781 C 49.515625 69.226562 48.476562 69.597656 47.417969 69.917969 C 46.359375 70.238281 45.289062 70.507812 44.207031 70.722656 C 43.121094 70.9375 42.03125 71.101562 40.929688 71.210938 C 39.828125 71.316406 38.726562 71.371094 37.621094 71.371094 C 36.515625 71.371094 35.414062 71.316406 34.3125 71.210938 C 33.214844 71.101562 32.121094 70.9375 31.039062 70.722656 C 29.953125 70.507812 28.882812 70.238281 27.824219 69.917969 C 26.765625 69.597656 25.726562 69.226562 24.707031 68.800781 C 23.683594 68.378906 22.6875 67.90625 21.710938 67.386719 C 20.738281 66.867188 19.789062 66.296875 18.871094 65.683594 C 17.953125 65.070312 17.066406 64.410156 16.210938 63.710938 C 15.355469 63.007812 14.539062 62.269531 13.757812 61.488281 C 12.976562 60.703125 12.234375 59.886719 11.53125 59.03125 C 10.832031 58.179688 10.171875 57.292969 9.558594 56.371094 C 8.945312 55.453125 8.378906 54.507812 7.855469 53.53125 C 7.335938 52.554688 6.863281 51.558594 6.441406 50.539062 C 6.019531 49.515625 5.644531 48.476562 5.324219 47.417969 C 5.003906 46.359375 4.734375 45.289062 4.519531 44.207031 C 4.304688 43.121094 4.144531 42.03125 4.035156 40.929688 C 3.925781 39.828125 3.871094 38.726562 3.871094 37.621094 C 3.871094 36.515625 3.925781 35.414062 4.035156 34.3125 C 4.144531 33.214844 4.304688 32.121094 4.519531 31.039062 C 4.734375 29.953125 5.003906 28.882812 5.324219 27.824219 C 5.644531 26.765625 6.019531 25.726562 6.441406 24.707031 C 6.863281 23.683594 7.335938 22.6875 7.855469 21.710938 C 8.378906 20.738281 8.945312 19.789062 9.558594 18.871094 C 10.171875 17.953125 10.832031 17.066406 11.53125 16.210938 C 12.234375 15.355469 12.976562 14.539062 13.757812 13.757812 C 14.539062 12.976562 15.355469 12.234375 16.210938 11.53125 C 17.066406 10.832031 17.953125 10.171875 18.871094 9.558594 C 19.789062 8.945312 20.738281 8.378906 21.710938 7.855469 C 22.6875 7.335938 23.683594 6.863281 24.707031 6.441406 C 25.726562 6.019531 26.765625 5.644531 27.824219 5.324219 C 28.882812 5.003906 29.953125 4.734375 31.039062 4.519531 C 32.121094 4.304688 33.214844 4.144531 34.3125 4.035156 C 35.414062 3.925781 36.515625 3.871094 37.621094 3.871094 C 38.726562 3.871094 39.828125 3.925781 40.929688 4.035156 C 42.03125 4.144531 43.121094 4.304688 44.207031 4.519531 C 45.289062 4.734375 46.359375 5.003906 47.417969 5.324219 C 48.476562 5.644531 49.515625 6.019531 50.539062 6.441406 C 51.558594 6.863281 52.554688 7.335938 53.53125 7.855469 C 54.507812 8.378906 55.453125 8.945312 56.371094 9.558594 C 57.292969 10.171875 58.179688 10.832031 59.03125 11.53125 C 59.886719 12.234375 60.703125 12.976562 61.488281 13.757812 C 62.269531 14.539062 63.007812 15.355469 63.710938 16.210938 C 64.410156 17.066406 65.070312 17.953125 65.683594 18.871094 C 66.296875 19.789062 66.867188 20.738281 67.386719 21.710938 C 67.90625 22.6875 68.378906 23.683594 68.800781 24.707031 C 69.226562 25.726562 69.597656 26.765625 69.917969 27.824219 C 70.238281 28.882812 70.507812 29.953125 70.722656 31.039062 C 70.9375 32.121094 71.101562 33.214844 71.210938 34.3125 C 71.316406 35.414062 71.371094 36.515625 71.371094 37.621094 Z M 71.371094 37.621094 " fill-opacity="1" fill-rule="nonzero"/></g><path fill="#ffffff" d="M 32.558594 22.433594 L 42.683594 22.433594 L 42.683594 52.808594 L 32.558594 52.808594 Z M 32.558594 22.433594 " fill-opacity="1" fill-rule="nonzero"/><path fill="#ffffff" d="M 22.433594 32.558594 L 52.808594 32.558594 L 52.808594 42.683594 L 22.433594 42.683594 Z M 22.433594 32.558594 " fill-opacity="1" fill-rule="nonzero"/></svg>